<svg width="24" height="21" viewBox="0 0 24 21" fill="none" xmlns="http://www.w3.org/2000/svg">
<path d="M22.8578 1.2857C22.3779 0.818354 21.6105 0.827819 21.1431 1.30782C20.6758 1.78777 20.6853 2.55514 21.1652 3.02249C21.1691 3.02645 21.5663 3.48747 21.5284 4.36929C21.5117 4.75875 21.3958 5.33262 21.0241 6.07373C21.4126 6.28929 21.7724 6.54827 22.0882 6.85766C22.3739 7.13779 22.6202 7.45645 22.8315 7.80231C23.5182 6.65996 23.9053 5.54684 23.9513 4.47273C24.0364 2.49357 22.9786 1.40334 22.8578 1.2857Z" fill="#C5CBD1"/>
<path d="M18.2745 7.00049C16.6616 7.00049 14.9485 7.80572 14.0138 9.10829C9.22482 15.7879 4.37928 16.1305 1.83099 16.1305C1.53961 16.1305 1.27831 16.1258 1.05096 16.1258C0.16441 16.1258 -0.214519 16.1936 0.120998 16.856C0.915895 18.427 4.54192 20.35 8.99593 20.35C12.5832 20.35 16.7073 19.1019 20.3191 15.4168C22.1411 13.5584 22.8137 9.83302 20.9561 8.01172C20.2425 7.31234 19.2778 7.00049 18.2745 7.00049Z" fill="#C5CBD1"/>
<path d="M3.10925 12.926C3.01823 11.7464 3.23828 9.0703 6.75436 7.56342C6.75436 7.56342 5.44904 10.7205 7.21702 12.3177C8.49974 11.3166 9.40203 9.68155 9.49461 8.10021C9.76063 3.53876 6.57592 1.13804 4.5083 0.0683705C4.29679 -0.041392 4.03859 -0.00430553 3.86735 0.161521C3.69525 0.326527 3.64865 0.583043 3.74972 0.798608C4.54858 2.4944 5.08619 5.5282 1.66872 9.05934C0.625325 10.1368 1.47551 12.1189 3.10925 12.926Z" fill="#C5CBD1"/>
</svg>
